REM DIRINDEX 1\2,1\3,1\4
REM DIRNAME cjc151,folder01,folder02,folder03
TITLE ""
FILE "077 077_Lesson 7_TOEFL_3900.mp3" MP3
  TRACK 01 AUDIO
    TITLE "4:cjc151_3338"
    INDEX 01 00:00:00
  TRACK 02 AUDIO
    TITLE "0:"
    INDEX 01 00:01:42
  TRACK 03 AUDIO
    TITLE "2:cjc151_3339"
    INDEX 01 00:02:22
  TRACK 04 AUDIO
    TITLE "0:"
    INDEX 01 00:03:23
  TRACK 05 AUDIO
    TITLE "3:cjc151_3340"
    INDEX 01 00:05:03
  TRACK 06 AUDIO
    TITLE "0:"
    INDEX 01 00:08:64
  TRACK 07 AUDIO
    TITLE "2:cjc151_3341"
    INDEX 01 00:10:43
  TRACK 08 AUDIO
    TITLE "0:"
    INDEX 01 00:11:58
  TRACK 09 AUDIO
    TITLE "3:cjc151_3342"
    INDEX 01 00:13:37
  TRACK 10 AUDIO
    TITLE "0:"
    INDEX 01 00:17:25
  TRACK 11 AUDIO
    TITLE "2:cjc151_3343"
    INDEX 01 00:19:07
  TRACK 12 AUDIO
    TITLE "0:"
    INDEX 01 00:20:00
  TRACK 13 AUDIO
    TITLE "3:cjc151_3344"
    INDEX 01 00:21:53
  TRACK 14 AUDIO
    TITLE "0:"
    INDEX 01 00:25:45
  TRACK 15 AUDIO
    TITLE "2:cjc151_3345"
    INDEX 01 00:27:24
  TRACK 16 AUDIO
    TITLE "0:"
    INDEX 01 00:28:41
  TRACK 17 AUDIO
    TITLE "3:cjc151_3346"
    INDEX 01 00:30:20
  TRACK 18 AUDIO
    TITLE "0:"
    INDEX 01 00:33:68
  TRACK 19 AUDIO
    TITLE "2:cjc151_3347"
    INDEX 01 00:35:47
  TRACK 20 AUDIO
    TITLE "0:"
    INDEX 01 00:36:66
  TRACK 21 AUDIO
    TITLE "3:cjc151_3348"
    INDEX 01 00:38:45
  TRACK 22 AUDIO
    TITLE "0:"
    INDEX 01 00:42:41
  TRACK 23 AUDIO
    TITLE "2:cjc151_3349"
    INDEX 01 00:44:20
  TRACK 24 AUDIO
    TITLE "0:"
    INDEX 01 00:45:16
  TRACK 25 AUDIO
    TITLE "3:cjc151_3350"
    INDEX 01 00:46:66
  TRACK 26 AUDIO
    TITLE "0:"
    INDEX 01 00:50:09
  TRACK 27 AUDIO
    TITLE "2:cjc151_3351"
    INDEX 01 00:51:63
  TRACK 28 AUDIO
    TITLE "0:"
    INDEX 01 00:53:00
  TRACK 29 AUDIO
    TITLE "3:cjc151_3352"
    INDEX 01 00:54:52
  TRACK 30 AUDIO
    TITLE "0:"
    INDEX 01 00:58:69
  TRACK 31 AUDIO
    TITLE "2:cjc151_3353"
    INDEX 01 01:00:49
  TRACK 32 AUDIO
    TITLE "0:"
    INDEX 01 01:01:40
  TRACK 33 AUDIO
    TITLE "3:cjc151_3354"
    INDEX 01 01:03:20
  TRACK 34 AUDIO
    TITLE "0:"
    INDEX 01 01:07:08
  TRACK 35 AUDIO
    TITLE "2:cjc151_3355"
    INDEX 01 01:08:66
  TRACK 36 AUDIO
    TITLE "0:"
    INDEX 01 01:09:59
  TRACK 37 AUDIO
    TITLE "3:cjc151_3356"
    INDEX 01 01:11:37
  TRACK 38 AUDIO
    TITLE "0:"
    INDEX 01 01:14:41
  TRACK 39 AUDIO
    TITLE "2:cjc151_3357"
    INDEX 01 01:16:28
  TRACK 40 AUDIO
    TITLE "0:"
    INDEX 01 01:17:41
  TRACK 41 AUDIO
    TITLE "3:cjc151_3358"
    INDEX 01 01:19:32
  TRACK 42 AUDIO
    TITLE "0:"
    INDEX 01 01:23:26
  TRACK 43 AUDIO
    TITLE "2:cjc151_3359"
    INDEX 01 01:25:06
  TRACK 44 AUDIO
    TITLE "0:"
    INDEX 01 01:26:27
  TRACK 45 AUDIO
    TITLE "3:cjc151_3360"
    INDEX 01 01:28:06
  TRACK 46 AUDIO
    TITLE "0:"
    INDEX 01 01:31:57
  TRACK 47 AUDIO
    TITLE "2:cjc151_3361"
    INDEX 01 01:33:34
  TRACK 48 AUDIO
    TITLE "0:"
    INDEX 01 01:34:40
  TRACK 49 AUDIO
    TITLE "3:cjc151_3362"
    INDEX 01 01:36:17
  TRACK 50 AUDIO
    TITLE "0:"
    INDEX 01 01:41:14
  TRACK 51 AUDIO
    TITLE "2:cjc151_3363"
    INDEX 01 01:42:67
  TRACK 52 AUDIO
    TITLE "0:"
    INDEX 01 01:43:64
  TRACK 53 AUDIO
    TITLE "3:cjc151_3364"
    INDEX 01 01:45:42
  TRACK 54 AUDIO
    TITLE "0:"
    INDEX 01 01:49:26
  TRACK 55 AUDIO
    TITLE "2:cjc151_3365"
    INDEX 01 01:51:05
  TRACK 56 AUDIO
    TITLE "0:"
    INDEX 01 01:52:06
  TRACK 57 AUDIO
    TITLE "3:cjc151_3366"
    INDEX 01 01:53:61
  TRACK 58 AUDIO
    TITLE "0:"
    INDEX 01 01:57:25
  TRACK 59 AUDIO
    TITLE "2:cjc151_3367"
    INDEX 01 01:59:04
  TRACK 60 AUDIO
    TITLE "0:"
    INDEX 01 02:00:08
  TRACK 61 AUDIO
    TITLE "3:cjc151_3368"
    INDEX 01 02:01:60
  TRACK 62 AUDIO
    TITLE "0:"
    INDEX 01 02:06:54
  TRACK 63 AUDIO
    TITLE "2:cjc151_3369"
    INDEX 01 02:08:33
  TRACK 64 AUDIO
    TITLE "0:"
    INDEX 01 02:09:24
  TRACK 65 AUDIO
    TITLE "3:cjc151_3370"
    INDEX 01 02:11:02
  TRACK 66 AUDIO
    TITLE "0:"
    INDEX 01 02:14:67
  TRACK 67 AUDIO
    TITLE "2:cjc151_3371"
    INDEX 01 02:16:44
  TRACK 68 AUDIO
    TITLE "0:"
    INDEX 01 02:17:51
  TRACK 69 AUDIO
    TITLE "3:cjc151_3372"
    INDEX 01 02:19:31
  TRACK 70 AUDIO
    TITLE "0:"
    INDEX 01 02:23:03
  TRACK 71 AUDIO
    TITLE "2:cjc151_3373"
    INDEX 01 02:24:57
  TRACK 72 AUDIO
    TITLE "0:"
    INDEX 01 02:26:01
  TRACK 73 AUDIO
    TITLE "3:cjc151_3374"
    INDEX 01 02:27:56
  TRACK 74 AUDIO
    TITLE "0:"
    INDEX 01 02:31:61
  TRACK 75 AUDIO
    TITLE "2:cjc151_3375"
    INDEX 01 02:33:41
  TRACK 76 AUDIO
    TITLE "0:"
    INDEX 01 02:34:48
  TRACK 77 AUDIO
    TITLE "3:cjc151_3376"
    INDEX 01 02:36:27
  TRACK 78 AUDIO
    TITLE "0:"
    INDEX 01 02:39:47
  TRACK 79 AUDIO
    TITLE "2:cjc151_3377"
    INDEX 01 02:41:24
  TRACK 80 AUDIO
    TITLE "0:"
    INDEX 01 02:42:18
  TRACK 81 AUDIO
    TITLE "3:cjc151_3378"
    INDEX 01 02:44:03
  TRACK 82 AUDIO
    TITLE "0:"
    INDEX 01 02:47:56
  TRACK 83 AUDIO
    TITLE "2:cjc151_3379"
    INDEX 01 02:49:36
  TRACK 84 AUDIO
    TITLE "0:"
    INDEX 01 02:50:65
  TRACK 85 AUDIO
    TITLE "3:cjc151_3380"
    INDEX 01 02:52:42
  TRACK 86 AUDIO
    TITLE "0:"
    INDEX 01 02:57:33
  TRACK 87 AUDIO
    TITLE "2:cjc151_3381"
    INDEX 01 02:59:11
  TRACK 88 AUDIO
    TITLE "0:"
    INDEX 01 03:00:14
  TRACK 89 AUDIO
    TITLE "3:cjc151_3382"
    INDEX 01 03:02:09
  TRACK 90 AUDIO
    TITLE "0:"
    INDEX 01 03:06:34
